<?xml version="1.0" standalone="no"?>
<!DOCTYPE svg PUBLIC "-//W3C//DTD SVG 20010904//EN"
 "http://www.w3.org/TR/2001/REC-SVG-20010904/DTD/svg10.dtd">
<svg version="1.0" xmlns="http://www.w3.org/2000/svg"
 width="800.000000pt" height="800.000000pt" viewBox="0 0 800.000000 800.000000"
 preserveAspectRatio="xMidYMid meet">

<g transform="translate(0.000000,800.000000) scale(0.100000,-0.100000)"
fill="#000000" stroke="none">
<path d="M0 4000 l0 -4000 1970 0 1969 0 4 88 3 87 2 -87 2 -88 2025 0 2025 0
0 4000 0 4000 -4000 0 -4000 0 0 -4000z m3608 2843 c-10 -2 -26 -2 -35 0 -10
3 -2 5 17 5 19 0 27 -2 18 -5z m-125 -20 c-13 -2 -33 -2 -45 0 -13 2 -3 4 22
4 25 0 35 -2 23 -4z m-740 -30 c-7 -2 -21 -2 -30 0 -10 3 -4 5 12 5 17 0 24
-2 18 -5z m84 -95 c-3 -8 -6 -5 -6 6 -1 11 2 17 5 13 3 -3 4 -12 1 -19z m203
-41 c0 -2 -19 -21 -42 -42 l-43 -40 40 43 c36 39 45 47 45 39z m-183 -54 c-3
-10 -5 -4 -5 12 0 17 2 24 5 18 2 -7 2 -21 0 -30z m93 -36 c0 -2 -12 -14 -27
-28 l-28 -24 24 28 c23 25 31 32 31 24z m-770 -127 c-6 -11 -13 -20 -16 -20
-2 0 0 9 6 20 6 11 13 20 16 20 2 0 0 -9 -6 -20z m-347 3 c-7 -2 -21 -2 -30 0
-10 3 -4 5 12 5 17 0 24 -2 18 -5z m2120 -100 c-7 -2 -21 -2 -30 0 -10 3 -4 5
12 5 17 0 24 -2 18 -5z m290 0 c-7 -2 -21 -2 -30 0 -10 3 -4 5 12 5 17 0 24
-2 18 -5z m-2116 -35 c-3 -8 -6 -5 -6 6 -1 11 2 17 5 13 3 -3 4 -12 1 -19z
m1686 5 c-7 -2 -19 -2 -25 0 -7 3 -2 5 12 5 14 0 19 -2 13 -5z m660 0 c-13 -2
-35 -2 -50 0 -16 2 -5 4 22 4 28 0 40 -2 28 -4z m-2356 -45 c-3 -8 -6 -5 -6 6
-1 11 2 17 5 13 3 -3 4 -12 1 -19z m1566 15 c-7 -2 -21 -2 -30 0 -10 3 -4 5
12 5 17 0 24 -2 18 -5z m-1986 -55 c-2 -13 -4 -5 -4 17 -1 22 1 32 4 23 2 -10
2 -28 0 -40z m3091 -75 c-10 -2 -28 -2 -40 0 -13 2 -5 4 17 4 22 1 32 -1 23
-4z m-3121 -65 c-3 -8 -6 -5 -6 6 -1 11 2 17 5 13 3 -3 4 -12 1 -19z m3370
-14 c-3 -3 -12 -4 -19 -1 -8 3 -5 6 6 6 11 1 17 -2 13 -5z m120 -30 c-3 -3
-12 -4 -19 -1 -8 3 -5 6 6 6 11 1 17 -2 13 -5z m130 -50 c-3 -3 -12 -4 -19 -1
-8 3 -5 6 6 6 11 1 17 -2 13 -5z m-3640 -36 c-3 -7 -5 -2 -5 12 0 14 2 19 5
13 2 -7 2 -19 0 -25z m3777 -54 c3 -8 2 -12 -4 -9 -6 3 -10 10 -10 16 0 14 7
11 14 -7z m110 -190 c3 -8 2 -12 -4 -9 -6 3 -10 10 -10 16 0 14 7 11 14 -7z
m-3947 -46 c-2 -13 -4 -5 -4 17 -1 22 1 32 4 23 2 -10 2 -28 0 -40z m-20 -170
c-3 -8 -6 -5 -6 6 -1 11 2 17 5 13 3 -3 4 -12 1 -19z m-10 -60 c-3 -8 -6 -5
-6 6 -1 11 2 17 5 13 3 -3 4 -12 1 -19z m4160 -50 c-3 -7 -5 -2 -5 12 0 14 2
19 5 13 2 -7 2 -19 0 -25z m-4180 -20 c-3 -8 -6 -5 -6 6 -1 11 2 17 5 13 3 -3
4 -12 1 -19z m4163 -61 c0 -2 -12 -14 -27 -28 l-28 -24 24 28 c23 25 31 32 31
24z m-4193 -39 c-3 -8 -6 -5 -6 6 -1 11 2 17 5 13 3 -3 4 -12 1 -19z m-20
-130 c-2 -13 -4 -5 -4 17 -1 22 1 32 4 23 2 -10 2 -28 0 -40z m4230 -200 c-3
-8 -6 -5 -6 6 -1 11 2 17 5 13 3 -3 4 -12 1 -19z m-4230 -60 c-2 -13 -4 -5 -4
17 -1 22 1 32 4 23 2 -10 2 -28 0 -40z m3245 -114 c35 -27 82 -46 161 -69 62
-18 144 -47 182 -64 96 -44 204 -71 305 -77 47 -3 113 -10 147 -16 61 -10 63
-11 72 -47 19 -73 41 -254 41 -339 0 -195 -44 -450 -107 -617 -62 -165 -172
-351 -322 -545 -122 -158 -380 -401 -591 -557 -131 -97 -322 -172 -515 -202
-225 -36 -301 -41 -451 -31 -176 11 -269 26 -504 81 -239 56 -305 81 -400 154
-245 188 -235 179 -325 313 -47 70 -108 158 -135 196 -69 96 -137 286 -210
586 -21 87 -15 109 47 155 48 36 135 124 158 159 10 14 23 26 30 26 8 0 31
-21 52 -47 55 -67 131 -113 187 -113 36 0 54 7 97 40 50 37 149 145 149 162 0
4 25 36 56 70 31 35 70 84 86 111 16 26 33 47 37 47 5 0 19 20 32 45 26 50 39
57 39 22 0 -41 75 -172 136 -237 22 -24 41 -61 59 -117 32 -103 55 -130 123
-148 56 -14 91 -9 139 23 42 27 129 148 175 244 26 53 60 111 76 130 49 56 83
124 102 204 10 42 21 79 24 82 10 9 138 -136 175 -199 11 -19 41 -51 67 -73
52 -44 108 -56 167 -37 31 11 42 23 76 91 22 44 59 108 82 142 48 72 110 194
132 259 8 24 27 86 43 136 18 57 34 93 43 93 7 0 36 -16 63 -36z m1035 -36
c-3 -7 -5 -2 -5 12 0 14 2 19 5 13 2 -7 2 -19 0 -25z m-4260 -150 c-2 -18 -4
-4 -4 32 0 36 2 50 4 33 2 -18 2 -48 0 -65z m4290 0 c-3 -7 -5 -2 -5 12 0 14
2 19 5 13 2 -7 2 -19 0 -25z m20 -110 c-3 -7 -5 -2 -5 12 0 14 2 19 5 13 2 -7
2 -19 0 -25z m10 -80 c-3 -7 -5 -2 -5 12 0 14 2 19 5 13 2 -7 2 -19 0 -25z
m-4290 -40 c-3 -7 -5 -2 -5 12 0 14 2 19 5 13 2 -7 2 -19 0 -25z m4310 -225
c-2 -32 -3 -8 -3 52 0 61 1 87 3 58 2 -29 2 -78 0 -110z m-4280 125 c-3 -8 -6
-5 -6 6 -1 11 2 17 5 13 3 -3 4 -12 1 -19z m2177 -2 c-6 -16 -24 -23 -24 -8 0
10 22 33 27 28 2 -2 1 -11 -3 -20z m-2127 -218 c-3 -7 -5 -2 -5 12 0 14 2 19
5 13 2 -7 2 -19 0 -25z m4210 -155 c-3 -10 -5 -4 -5 12 0 17 2 24 5 18 2 -7 2
-21 0 -30z m-10 -85 c-3 -7 -5 -2 -5 12 0 14 2 19 5 13 2 -7 2 -19 0 -25z
m-20 -90 c-3 -8 -6 -5 -6 6 -1 11 2 17 5 13 3 -3 4 -12 1 -19z m-4110 -80 c-3
-8 -6 -5 -6 6 -1 11 2 17 5 13 3 -3 4 -12 1 -19z m10 -55 c-3 -10 -5 -4 -5 12
0 17 2 24 5 18 2 -7 2 -21 0 -30z m4070 15 c-3 -8 -6 -5 -6 6 -1 11 2 17 5 13
3 -3 4 -12 1 -19z m-3960 -114 c-3 -3 -12 -4 -19 -1 -8 3 -5 6 6 6 11 1 17 -2
13 -5z m3566 -619 c-3 -9 -8 -14 -10 -11 -3 3 -2 9 2 15 9 16 15 13 8 -4z
m-93 -119 c0 -2 -8 -10 -17 -17 -16 -13 -17 -12 -4 4 13 16 21 21 21 13z m-50
-49 c0 -1 -33 -34 -72 -72 l-73 -70 70 73 c64 67 75 77 75 69z m-2971 -81 c-3
-3 -11 5 -18 17 -13 21 -12 21 5 5 10 -10 16 -20 13 -22z m2811 -79 c0 -2 -15
-16 -32 -33 l-33 -29 29 33 c28 30 36 37 36 29z m955 -57 c3 -5 17 -10 30 -10
14 0 42 -9 64 -21 48 -24 186 -167 195 -200 4 -13 12 -41 18 -61 9 -30 8 -47
-2 -79 -11 -31 -11 -45 -2 -59 6 -11 15 -38 18 -62 4 -24 10 -47 14 -53 4 -5
11 -30 15 -55 4 -25 11 -49 15 -55 9 -12 18 -61 31 -180 6 -49 15 -107 21
-128 16 -53 16 -337 1 -368 -6 -13 -19 -41 -29 -62 -11 -26 -28 -42 -53 -53
-92 -39 -86 -31 -89 -128 -2 -52 2 -93 8 -101 6 -7 13 -64 17 -127 7 -133 -3
-165 -71 -229 -35 -33 -48 -39 -87 -39 -37 0 -55 7 -90 34 -37 28 -55 34 -109
38 -67 5 -84 1 -135 -31 -26 -17 -50 -20 -172 -20 -81 -1 -144 3 -148 9 -6 10
-49 -5 -76 -27 -8 -7 -24 -13 -34 -13 -10 0 -33 -5 -51 -12 -26 -9 -38 -9 -58
1 -15 9 -35 11 -53 6 -52 -13 -103 -17 -128 -11 -28 7 -105 81 -105 101 0 41
-62 105 -102 105 -14 0 -88 54 -88 64 0 5 -16 26 -35 48 -20 21 -38 52 -42 69
-3 16 -10 32 -14 35 -5 3 -9 12 -9 21 0 8 -6 29 -14 46 -24 56 -35 91 -41 137
-17 126 -27 154 -63 188 -34 31 -35 35 -33 95 3 91 16 137 71 247 38 78 48 96
78 137 12 17 22 34 22 38 0 7 26 68 41 97 5 9 12 36 15 60 4 24 10 48 14 53 4
6 10 23 14 38 4 16 25 55 47 88 42 60 106 112 200 159 53 27 111 78 136 120
26 44 48 54 183 80 62 12 138 34 146 43 11 11 62 8 69 -3 9 -15 53 -12 79 5
19 13 48 15 139 13 83 -2 120 1 128 10 15 14 95 16 104 2z m-1145 -104 c0 -2
-8 -10 -17 -17 -16 -13 -17 -12 -4 4 13 16 21 21 21 13z m-2095 -196 c3 -6 -1
-7 -9 -4 -18 7 -21 14 -7 14 6 0 13 -4 16 -10z m72 -26 c-3 -3 -12 -4 -19 -1
-8 3 -5 6 6 6 11 1 17 -2 13 -5z m190 -50 c-3 -3 -12 -4 -19 -1 -8 3 -5 6 6 6
11 1 17 -2 13 -5z m1320 -30 c-3 -3 -12 -4 -19 -1 -8 3 -5 6 6 6 11 1 17 -2
13 -5z m-1110 -20 c-3 -3 -12 -4 -19 -1 -8 3 -5 6 6 6 11 1 17 -2 13 -5z
m1040 0 c-3 -3 -12 -4 -19 -1 -8 3 -5 6 6 6 11 1 17 -2 13 -5z m-1000 -10 c-3
-3 -12 -4 -19 -1 -8 3 -5 6 6 6 11 1 17 -2 13 -5z m141 -21 c-10 -2 -28 -2
-40 0 -13 2 -5 4 17 4 22 1 32 -1 23 -4z m725 0 c-7 -2 -21 -2 -30 0 -10 3 -4
5 12 5 17 0 24 -2 18 -5z m-315 -30 c-22 -3 -28 -10 -29 -31 -1 -18 -3 -21 -6
-9 -8 31 5 47 34 46 l28 -2 -27 -4z m-21 -455 c-1 -62 -3 -12 -3 112 0 124 2
174 3 113 2 -62 2 -164 0 -225z m-1210 156 c-3 -3 -12 -4 -19 -1 -8 3 -5 6 6
6 11 1 17 -2 13 -5z m-136 -41 c13 -16 12 -17 -3 -4 -10 7 -18 15 -18 17 0 8
8 3 21 -13z m976 -80 c-3 -10 -5 -4 -5 12 0 17 2 24 5 18 2 -7 2 -21 0 -30z
m-826 -40 c13 -17 13 -17 -6 -3 -11 8 -22 16 -24 17 -2 2 0 3 6 3 6 0 17 -8
24 -17z m1922 -30 c-13 -2 -33 -2 -45 0 -13 2 -3 4 22 4 25 0 35 -2 23 -4z
m-1076 -140 c-2 -27 -3 -5 -3 47 0 52 1 74 3 48 2 -27 2 -69 0 -95z m926 120
c-7 -2 -19 -2 -25 0 -7 3 -2 5 12 5 14 0 19 -2 13 -5z m-1776 -35 c-3 -8 -6
-5 -6 6 -1 11 2 17 5 13 3 -3 4 -12 1 -19z m1626 5 c-7 -2 -19 -2 -25 0 -7 3
-2 5 12 5 14 0 19 -2 13 -5z m-96 -19 c-3 -3 -12 -4 -19 -1 -8 3 -5 6 6 6 11
1 17 -2 13 -5z m-50 -10 c-3 -3 -12 -4 -19 -1 -8 3 -5 6 6 6 11 1 17 -2 13 -5z
m-290 -66 c-3 -8 -6 -5 -6 6 -1 11 2 17 5 13 3 -3 4 -12 1 -19z m700 -134 c-3
-3 -12 -4 -19 -1 -8 3 -5 6 6 6 11 1 17 -2 13 -5z m-290 -110 c-3 -3 -12 -4
-19 -1 -8 3 -5 6 6 6 11 1 17 -2 13 -5z m-380 -121 c-2 -21 -4 -6 -4 32 0 39
2 55 4 38 2 -18 2 -50 0 -70z m196 70 c-7 -2 -19 -2 -25 0 -7 3 -2 5 12 5 14
0 19 -2 13 -5z m-555 -69 l-3 -39 -5 47 c-3 26 -1 43 3 39 5 -5 7 -26 5 -47z
m389 -171 c-3 -10 -5 -4 -5 12 0 17 2 24 5 18 2 -7 2 -21 0 -30z m20 -135 c-3
-8 -6 -5 -6 6 -1 11 2 17 5 13 3 -3 4 -12 1 -19z m-410 -135 c-2 -16 -4 -3 -4
27 0 30 2 43 4 28 2 -16 2 -40 0 -55z m420 45 c-3 -7 -5 -2 -5 12 0 14 2 19 5
13 2 -7 2 -19 0 -25z m20 -160 c-2 -13 -4 -3 -4 22 0 25 2 35 4 23 2 -13 2
-33 0 -45z m-430 10 c-3 -8 -6 -5 -6 6 -1 11 2 17 5 13 3 -3 4 -12 1 -19z m10
-65 c-3 -10 -5 -4 -5 12 0 17 2 24 5 18 2 -7 2 -21 0 -30z m20 -220 c-3 -10
-5 -4 -5 12 0 17 2 24 5 18 2 -7 2 -21 0 -30z m10 -70 c-3 -10 -5 -4 -5 12 0
17 2 24 5 18 2 -7 2 -21 0 -30z"/>
<path d="M4632 3981 c-105 -27 -172 -102 -172 -192 0 -63 34 -101 109 -124
128 -38 262 23 295 136 24 79 -8 143 -89 180 -47 22 -59 22 -143 0z"/>
<path d="M2997 3719 c-16 -4 -35 -13 -43 -20 -8 -6 -28 -19 -46 -28 -90 -46
-103 -178 -22 -222 40 -21 131 -17 181 9 89 47 106 112 51 197 -37 55 -77 77
-121 64z"/>
<path d="M3946 3507 c-125 -128 -151 -147 -199 -147 -28 0 -41 8 -68 40 -71
86 -88 100 -113 100 -64 0 -89 -96 -45 -170 67 -112 175 -160 297 -130 108 25
287 171 337 275 25 50 25 55 11 88 -16 39 -41 57 -82 57 -21 0 -51 -24 -138
-113z"/>
<path d="M5650 2218 c-65 -19 -110 -90 -110 -176 0 -43 5 -55 39 -93 38 -43
40 -44 103 -44 54 0 71 4 105 28 45 31 83 91 83 131 0 55 -35 102 -101 135
-68 34 -68 34 -119 19z"/>
<path d="M5078 1780 c-43 -26 -72 -149 -47 -203 26 -56 123 -74 171 -31 24 22
48 78 48 111 0 35 -27 89 -54 106 -29 20 -97 29 -118 17z"/>
<path d="M5913 1528 c-26 -13 -47 -67 -36 -94 9 -25 44 -53 66 -54 21 0 21 -1
2 -36 -19 -37 -19 -62 0 -108 38 -91 153 -69 204 39 59 125 -19 255 -157 262
-32 1 -67 -2 -79 -9z"/>
<path d="M5629 1488 c-66 -62 -79 -130 -33 -167 38 -30 71 -26 109 12 25 25
35 46 41 82 6 45 5 50 -20 72 -34 29 -66 29 -97 1z"/>
<path d="M5143 1175 c-42 -30 -26 -131 24 -154 36 -16 51 -14 78 14 35 34 36
108 2 130 -37 24 -79 28 -104 10z"/>
<path d="M4610 1111 c0 -5 5 -13 10 -16 6 -3 10 -2 10 4 0 5 -4 13 -10 16 -5
3 -10 2 -10 -4z"/>
<path d="M4632 1010 c0 -14 2 -19 5 -12 2 6 2 18 0 25 -3 6 -5 1 -5 -13z"/>
<path d="M5582 916 c-47 -54 -43 -91 17 -155 17 -18 31 -38 31 -45 0 -6 12
-26 28 -44 38 -46 106 -55 146 -20 43 36 47 109 12 182 -35 71 -84 108 -151
114 -48 4 -53 2 -83 -32z"/>
<path d="M5146 759 c-55 -43 -71 -131 -36 -207 22 -49 48 -62 127 -62 50 0 59
3 88 34 25 26 33 46 38 88 11 85 8 114 -11 138 -16 19 -29 23 -100 25 -68 2
-86 -1 -106 -16z"/>
</g>
</svg>
